<svg version="1.1" id="Capa_1" xmlns="http://www.w3.org/2000/svg" xmlns:xlink="http://www.w3.org/1999/xlink" x="0px" y="0px" viewBox="0 0 512 512" style="enable-background:new 0 0 512 512;" xml:space="preserve"><g><g><path d="M256,0C114.624,0,0,114.624,0,256s114.624,256,256,256s256-114.624,256-256S397.376,0,256,0z M272,366.72V384
			c0,8.832-7.168,16-16,16c-8.832,0-16-7.168-16-16v-17.344c-16.384-2.688-31.392-9.376-42.624-19.328
			c-6.624-5.888-7.2-15.968-1.344-22.592c5.856-6.624,15.968-7.168,22.592-1.344C227.648,331.392,241.28,336,256,336
			c26.016,0,48-14.656,48-32s-21.984-32-48-32c-44.096,0-80-28.704-80-64c0-30.912,27.52-56.768,64-62.72V128
			c0-8.832,7.168-16,16-16c8.832,0,16,7.168,16,16v17.344c16.384,2.688,31.392,9.376,42.624,19.328
			c6.592,5.888,7.232,16,1.344,22.592s-15.968,7.168-22.592,1.344C284.352,180.608,270.72,176,256,176c-26.016,0-48,14.656-48,32
			s21.984,32,48,32c44.128,0,80,28.704,80,64C336,334.912,308.48,360.768,272,366.72z"/></g></g></svg>
