<svg version="1.1" id="Capa_1" xmlns="http://www.w3.org/2000/svg" xmlns:xlink="http://www.w3.org/1999/xlink" x="0px" y="0px" viewBox="0 0 512 512" style="enable-background:new 0 0 512 512;" xml:space="preserve"><g><g><path d="M296,272h-16h-88v80h104c22.048,0,40-17.952,40-40C336,289.952,318.048,272,296,272z"/></g></g><g><g><path d="M280,160h-88v80h88c22.048,0,40-17.952,40-40C320,177.952,302.048,160,280,160z"/></g></g><g><g><path d="M256,0C114.624,0,0,114.624,0,256s114.624,256,256,256s256-114.624,256-256S397.376,0,256,0z M296,384h-8v16 c0,8.832-7.168,16-16,16c-8.832,0-16-7.168-16-16v-16h-32v16c0,8.832-7.168,16-16,16c-8.832,0-16-7.168-16-16v-16h-16 c-8.832,0-16-7.168-16-16V144c0-8.832,7.168-16,16-16h16v-16c0-8.832,7.168-16,16-16c8.832,0,16,7.168,16,16v16h32v-16 c0-8.832,7.168-16,16-16c8.832,0,16,7.168,16,16v16.8c35.904,4.032,64,34.24,64,71.2c0,19.392-7.776,36.928-20.288,49.856 C353.28,262.336,368,285.344,368,312C368,351.712,335.68,384,296,384z"/></g></g></svg>
