<svg xmlns="http://www.w3.org/2000/svg" xmlns:xlink="http://www.w3.org/1999/xlink" x="0px" y="0px" viewBox="0 0 512 512"><g><g><path d="M256,0C114.624,0,0,114.624,0,256s114.624,256,256,256s256-114.624,256-256S397.376,0,256,0z M381.408,312.704
			c-41.568,63.968-101.632,71.968-129.152,71.968c-8.448,0-13.792-0.736-14.656-0.864c-7.808-1.184-13.6-7.904-13.6-15.808v-91.52
			l-44.128,11.04c-1.28,0.32-2.592,0.48-3.872,0.48c-7.2,0-13.696-4.832-15.52-12.128c-2.144-8.544,3.072-17.248,11.648-19.392
			L224,243.52v-31.04l-44.128,11.04c-1.28,0.32-2.592,0.48-3.872,0.48c-7.2,0-13.696-4.832-15.52-12.128
			c-2.144-8.544,3.072-17.248,11.648-19.392L224,179.52V144c0-8.832,7.168-16,16-16c8.832,0,16,7.168,16,16v27.52l44.128-11.04
			c8.384-2.24,17.248,3.072,19.392,11.648c2.112,8.576-3.072,17.248-11.648,19.392L256,204.48v31.04l44.128-11.04
			c8.384-2.208,17.248,3.072,19.392,11.648c2.112,8.576-3.072,17.248-11.648,19.392L256,268.48v84.192
			c22.24-0.704,66.944-8.704,98.592-57.408c4.832-7.392,14.816-9.44,22.112-4.672C384.128,295.392,386.208,305.312,381.408,312.704z
			"/></g></g></svg>
